<?xml version="1.0" encoding="UTF-8"?>
<svg width="700pt" height="700pt" version="1.1" viewBox="0 0 700 700" xmlns="http://www.w3.org/2000/svg">
 <path d="m341.8 538.64-39.773 17.812c-17.301 7.75-37.66 2.293-48.766-13.062l-25.539-35.316c-3.3398-4.6172-8.4883-7.5938-14.16-8.1758l-43.352-4.457c-18.855-1.9414-33.758-16.844-35.699-35.699l-4.457-43.352c-0.58203-5.6719-3.5586-10.82-8.1758-14.16l-35.316-25.539c-15.355-11.105-20.812-31.465-13.066-48.766l17.816-39.773c2.3281-5.1992 2.3281-11.148 0-16.348l-17.816-39.773c-7.7461-17.301-2.2891-37.66 13.066-48.766l35.316-25.539c4.6172-3.3398 7.5938-8.4883 8.1758-14.16l4.457-43.352c1.9414-18.855 16.844-33.758 35.699-35.699l43.352-4.457c5.6719-0.58203 10.82-3.5586 14.16-8.1758l25.539-35.316c11.105-15.355 31.465-20.812 48.766-13.066l39.773 17.816c5.1992 2.3281 11.148 2.3281 16.348 0l39.773-17.816c17.301-7.7461 37.66-2.2891 48.766 13.066l25.539 35.316c3.3398 4.6172 8.4883 7.5938 14.16 8.1758l43.352 4.457c18.855 1.9414 33.758 16.844 35.699 35.699l4.457 43.352c0.58203 5.6719 3.5586 10.82 8.1758 14.16l35.316 25.539c15.355 11.105 20.812 31.465 13.062 48.766l-17.812 39.773c-2.3281 5.1992-2.3281 11.148 0 16.348l17.812 39.773c7.75 17.301 2.293 37.66-13.062 48.766l-35.316 25.539c-4.6172 3.3398-7.5938 8.4883-8.1758 14.16l-4.457 43.352c-1.9414 18.855-16.844 33.758-35.699 35.699l-43.352 4.457c-5.6719 0.58203-10.82 3.5586-14.16 8.1758l-25.539 35.316c-11.105 15.355-31.465 20.812-48.766 13.062l-39.773-17.812c-5.1992-2.3281-11.148-2.3281-16.348 0zm-99.887-296.5-33.941 33.941 113.94 113.94 174.91-174.91-33.938-33.941-140.97 140.96z" fill-rule="evenodd"/>
</svg>
